<svg version="1.1" id="Layer_1" xmlns="http://www.w3.org/2000/svg" xmlns:xlink="http://www.w3.org/1999/xlink" x="0px" y="0px"
	 width="100%" viewBox="0 0 1024 1024" enable-background="new 0 0 1024 1024" xml:space="preserve">
<path fill="#010101" opacity="1.000000" stroke="none" 
	d="
M697.000000,1025.000000 
	C464.666656,1025.000000 232.833328,1025.000000 1.000000,1025.000000 
	C1.000000,683.666687 1.000000,342.333344 1.000000,1.000000 
	C342.333344,1.000000 683.666687,1.000000 1025.000000,1.000000 
	C1025.000000,342.333344 1025.000000,683.666687 1025.000000,1025.000000 
	C915.833313,1025.000000 806.666687,1025.000000 697.000000,1025.000000 
M835.686584,820.114624 
	C841.037476,828.917542 846.364990,837.734802 851.746826,846.518738 
	C855.858887,853.229980 859.623535,853.209656 863.604736,846.531860 
	C869.078430,837.350586 874.563416,828.176025 880.043518,818.998596 
	C880.387878,819.084473 880.732178,819.170349 881.076538,819.256226 
	C881.076538,831.759521 881.076538,844.262817 881.076538,856.786377 
	C886.402893,856.786377 891.134399,856.786377 895.759399,856.786377 
	C895.759399,834.096558 895.759399,811.707642 895.759399,789.019958 
	C892.781006,789.019958 890.102356,789.307922 887.511902,788.952576 
	C883.617981,788.418518 881.621643,790.007385 879.840515,793.414673 
	C876.152222,800.470215 871.937988,807.252258 867.896912,814.121460 
	C864.746704,819.476379 861.531311,824.792969 858.067261,830.591125 
	C856.780457,828.601318 855.867859,827.254700 855.019836,825.868530 
	C848.343384,814.955994 841.709167,804.017334 834.971863,793.142517 
	C834.160583,791.833130 832.897339,790.003906 831.695068,789.882263 
	C827.651428,789.472961 823.540649,789.726685 819.534790,789.726685 
	C819.534790,812.533386 819.534790,834.621399 819.534790,856.780640 
	C824.571106,856.780640 829.292664,856.780640 834.334900,856.780640 
	C834.334900,848.832825 834.250000,841.190369 834.366821,833.550964 
	C834.436523,828.994202 834.822998,824.442261 835.030823,819.954468 
	C835.030823,819.954468 834.986023,820.015320 835.686584,820.114624 
M382.001038,674.527100 
	C395.463623,698.869873 408.926208,723.212646 422.674377,748.071777 
	C423.724304,746.394043 424.456116,745.327271 425.085999,744.203308 
	C461.796844,678.701477 498.614136,613.258911 535.173279,547.672424 
	C580.305725,466.705505 625.234985,385.625244 670.182434,304.555389 
	C671.726318,301.770721 673.373779,300.650421 676.726196,300.660950 
	C731.549316,300.833008 786.372986,300.801636 841.196289,300.950378 
	C844.634460,300.959717 846.439453,299.933777 848.094238,296.858093 
	C856.358154,281.497620 864.916504,266.295624 873.372803,251.038681 
	C877.761414,243.120789 882.152954,235.204559 886.723999,226.961594 
	C885.406494,226.825424 884.755615,226.699631 884.104614,226.699280 
	C850.785950,226.681274 817.467224,226.723495 784.148682,226.653824 
	C733.663513,226.548233 683.178467,226.367172 632.693359,226.211288 
	C630.059265,226.203156 627.849609,226.031296 626.136902,229.151459 
	C603.509338,270.374939 580.795959,311.552246 557.896973,352.625641 
	C519.383728,421.705841 480.748108,490.717926 442.097260,559.721252 
	C435.800079,570.963623 429.160034,582.013977 422.418884,593.599182 
	C368.117126,495.786926 314.155243,398.586884 259.976257,300.995819 
	C273.039856,300.995819 285.385620,301.367310 297.692078,300.833252 
	C303.519592,300.580383 306.485168,302.662842 309.221558,307.570587 
	C346.685150,374.761444 384.337189,441.847229 421.940735,508.960083 
	C424.881897,514.209290 427.807373,519.467285 431.013550,525.210999 
	C444.971558,500.340912 458.499603,476.144836 472.164612,452.026367 
	C473.585693,449.518250 473.380890,447.748444 472.006287,445.313965 
	C458.443298,421.293579 444.971680,397.221100 431.576630,373.106506 
	C405.110443,325.460480 378.688110,277.790039 352.342163,230.077484 
	C350.987061,227.623352 349.725525,226.522675 346.713654,226.521713 
	C289.730042,226.503555 232.746506,226.330612 175.762909,226.206070 
	C161.696472,226.175323 147.629883,226.201492 132.979233,226.201492 
	C134.059158,228.322403 134.749908,229.796112 135.540207,231.214355 
	C173.960648,300.161560 212.446701,369.072235 250.802673,438.055267 
	C294.488434,516.623840 338.059052,595.256470 382.001038,674.527100 
M536.179565,710.322571 
	C541.339844,719.615051 546.635620,728.836182 551.583313,738.240417 
	C553.208191,741.328918 555.114319,742.309387 558.567871,742.299500 
	C596.719177,742.189758 634.871094,742.229309 673.022461,742.350464 
	C675.903320,742.359619 677.455688,741.460510 678.853821,738.940491 
	C732.601379,642.069763 786.422668,545.239929 840.227295,448.400818 
	C841.639709,445.858643 842.975220,443.273712 844.486755,440.446564 
	C843.349365,440.278900 842.889404,440.151947 842.429321,440.151672 
	C786.443665,440.118958 730.457947,440.066223 674.472656,440.205597 
	C672.687195,440.210052 670.165894,441.756714 669.244019,443.323608 
	C663.265137,453.486420 657.611084,463.841125 651.896484,474.158386 
	C644.591064,487.347656 637.328918,500.560913 629.542297,514.681030 
	C658.676514,514.681030 686.958496,514.681030 715.391907,514.681030 
	C715.183167,515.718018 715.193604,516.064819 715.049377,516.326355 
	C687.776184,565.772522 660.511414,615.223511 633.101746,664.593933 
	C632.371948,665.908386 630.082886,667.032410 628.487122,667.078674 
	C619.663208,667.334106 610.825073,667.087708 602.000244,667.326355 
	C599.192749,667.402283 598.035461,666.313477 596.766235,664.003723 
	C580.692688,634.753723 564.487610,605.575989 548.309204,576.367554 
	C548.082825,576.564880 547.586609,576.817383 547.359375,577.221191 
	C533.506042,601.837891 519.648499,626.452454 505.926910,651.142517 
	C505.304901,652.261719 505.414764,654.355042 506.051117,655.521362 
	C515.917847,673.605469 525.928101,691.611328 536.179565,710.322571 
M228.306870,854.347900 
	C232.834335,860.952820 239.218475,855.865234 244.431412,857.672058 
	C244.431412,834.686096 244.431412,812.435303 244.431412,790.286926 
	C238.953217,790.286926 233.894669,790.286926 228.559860,790.286926 
	C228.559860,803.240662 228.559860,815.801392 228.559860,829.132446 
	C227.509094,828.023804 226.955795,827.499817 226.470505,826.919128 
	C216.971054,815.551147 207.514282,804.147034 197.936844,792.845276 
	C196.882401,791.600952 195.212967,790.284180 193.712006,790.128784 
	C189.960007,789.740356 186.140854,790.000671 182.121918,790.000671 
	C182.121918,812.673218 182.121918,834.891052 182.121918,857.408203 
	C187.477249,857.408203 192.549744,857.408203 198.110184,857.408203 
	C198.110184,844.252502 198.110184,831.400879 198.110184,817.512390 
	C208.506012,830.167175 218.191422,841.957153 228.306870,854.347900 
M259.956604,826.500061 
	C259.956604,836.620056 259.956604,846.739990 259.956604,857.137329 
	C265.499115,857.137329 270.566193,857.137329 276.070007,857.137329 
	C276.070007,844.090515 276.070007,831.238098 276.070007,817.393677 
	C278.228546,819.882751 279.751129,821.554077 281.181061,823.301208 
	C289.718689,833.732666 298.213379,844.199402 306.790802,854.597961 
	C307.675262,855.670166 308.959320,857.032288 310.145508,857.123718 
	C314.209534,857.437012 318.312653,857.243896 322.248535,857.243896 
	C322.248535,834.340210 322.248535,812.260132 322.248535,790.181763 
	C316.972839,790.181763 312.056793,790.181763 306.642578,790.181763 
	C306.642578,802.974976 306.642578,815.504883 306.642578,828.034851 
	C306.192719,828.312439 305.742859,828.590027 305.292999,828.867676 
	C304.841431,827.998962 304.528534,827.015137 303.917542,826.278687 
	C294.779053,815.264648 285.624878,804.263367 276.402008,793.320007 
	C275.292114,792.003052 273.849457,790.229980 272.406464,790.070984 
	C268.367493,789.625854 264.247498,789.915955 259.961792,789.915955 
	C259.961792,802.217346 259.961792,813.858704 259.956604,826.500061 
M676.502380,836.497620 
	C676.502380,843.269653 676.502380,850.041687 676.502380,856.988892 
	C688.957336,856.988892 700.761475,857.211975 712.553833,856.934814 
	C728.839661,856.552063 741.661011,844.933167 743.946350,828.945496 
	C746.350220,812.128662 737.518555,797.092590 721.987976,791.966492 
	C707.066040,787.041199 691.757324,790.379578 676.495911,789.438049 
	C676.495911,805.279785 676.495911,820.388611 676.502380,836.497620 
M138.500107,789.964783 
	C131.708344,789.964783 124.916573,789.964783 117.896782,789.964783 
	C117.896782,812.782593 117.896782,835.176147 117.896782,857.415405 
	C135.298523,857.415405 152.351257,857.415405 169.563126,857.415405 
	C169.563126,853.043030 169.563126,849.132507 169.563126,844.906494 
	C157.499176,844.906494 145.741211,844.906494 134.026672,844.906494 
	C134.026672,839.721924 134.026672,834.864746 134.026672,829.483032 
	C144.512848,829.483032 154.572464,829.483032 164.440247,829.483032 
	C164.440247,825.044250 164.440247,821.147217 164.440247,817.043579 
	C154.081390,817.043579 144.145844,817.043579 133.854218,817.043579 
	C133.854218,812.267700 133.854218,807.715942 133.854218,802.554688 
	C145.483047,802.554688 157.067261,802.554688 168.655334,802.554688 
	C168.655334,798.036621 168.655334,794.122314 168.655334,789.965210 
	C158.755539,789.965210 149.127823,789.965210 138.500107,789.964783 
M513.765259,857.027893 
	C517.686096,857.027893 521.606995,857.027893 526.060364,857.027893 
	C517.304871,837.459717 508.307617,818.763184 500.626526,799.540649 
	C497.198639,790.962097 492.908051,787.058960 483.643066,788.707397 
	C481.078339,789.163757 479.612061,789.504639 478.499390,792.102844 
	C473.925293,802.783813 468.986053,813.307678 464.306732,823.944519 
	C459.511932,834.843872 454.863708,845.807556 450.011169,857.068298 
	C451.869232,857.068298 453.242493,856.843872 454.516632,857.104370 
	C463.690277,858.979858 469.324371,855.619873 471.062531,846.218140 
	C471.587311,843.379517 473.471283,842.805969 476.169769,842.916138 
	C481.326202,843.126709 486.618774,843.669128 491.636719,842.805847 
	C500.701172,841.246582 505.545502,844.911499 507.484283,853.424011 
	C508.149780,856.345764 509.861145,857.618774 513.765259,857.027893 
M620.956238,794.342957 
	C611.789062,815.065979 602.621887,835.788940 593.210266,857.064453 
	C597.931030,857.064453 601.747314,857.064392 605.563538,857.064392 
	C606.885620,857.064392 608.207642,857.064453 609.672852,857.064453 
	C611.113892,853.725281 612.773254,850.626160 613.784546,847.328308 
	C614.806274,843.996460 616.347229,842.485168 620.073242,842.806763 
	C624.533447,843.191589 629.132080,843.421387 633.530762,842.771179 
	C642.969788,841.375854 649.384338,843.884888 651.379517,854.080322 
	C651.603699,855.225891 653.430420,856.806213 654.602844,856.886353 
	C659.313232,857.208374 664.058411,857.019592 669.381165,857.019592 
	C660.359314,836.814758 651.324097,817.452698 643.123108,797.743469 
	C640.221130,790.769409 636.756287,787.577087 628.954529,788.598999 
	C625.095642,789.104492 622.338379,789.636414 620.956238,794.342957 
M761.760925,789.564148 
	C759.614563,789.564148 757.468201,789.564148 755.179688,789.564148 
	C755.179688,812.213318 755.179688,834.441406 755.179688,856.735718 
	C772.615784,856.735718 789.811951,856.735718 806.887939,856.735718 
	C806.887939,852.453308 806.887939,848.510254 806.887939,844.138428 
	C794.933655,844.138428 783.203979,844.138428 771.303955,844.138428 
	C771.303955,838.967712 771.303955,834.237610 771.303955,829.042847 
	C781.609802,829.042847 791.672302,829.042847 801.753479,829.042847 
	C801.753479,824.674866 801.753479,820.782043 801.753479,816.428345 
	C791.378723,816.428345 781.317139,816.428345 771.424561,816.428345 
	C771.424561,811.375732 771.424561,806.798279 771.424561,801.755066 
	C783.143188,801.755066 794.538269,801.755066 805.819702,801.755066 
	C805.819702,797.494080 805.819702,793.711487 805.819702,789.537598 
	C791.273193,789.537598 776.981750,789.537598 761.760925,789.564148 
M412.351654,792.027039 
	C402.613800,788.407104 392.608093,786.821045 382.580078,790.120667 
	C378.139984,791.581604 373.460724,793.874634 370.214996,797.116455 
	C360.151764,807.167908 364.613312,822.178040 378.754974,826.979492 
	C385.813354,829.376038 393.068542,831.214905 400.044983,833.815125 
	C401.755157,834.452515 403.865936,837.179932 403.736298,838.779846 
	C403.577667,840.737305 401.589447,843.594238 399.797394,844.152588 
	C396.110321,845.301270 391.845917,846.104614 388.148346,845.376953 
	C381.746674,844.117249 375.595428,841.584839 368.966766,839.467285 
	C367.444519,842.568176 365.650513,846.222656 363.865906,849.857971 
	C375.643219,858.501709 388.577301,859.776855 401.866791,857.539734 
	C413.518005,855.578369 420.424164,847.979736 420.936279,838.231934 
	C421.401428,829.378235 416.233032,823.526184 404.068390,819.545410 
	C398.866669,817.843201 393.492401,816.673462 388.265289,815.041565 
	C385.017273,814.027405 381.782379,812.503845 382.039703,808.334351 
	C382.301727,804.089111 385.522308,802.761475 389.149109,801.871033 
	C397.632904,799.788025 405.116913,802.920349 413.023926,806.477905 
	C414.798004,802.688110 416.502502,799.046936 418.299011,795.209167 
	C416.235016,794.059509 414.652344,793.177979 412.351654,792.027039 
M555.728882,843.116638 
	C543.823059,837.028015 539.803406,821.667053 547.122864,810.229004 
	C554.080994,799.355591 568.521179,798.839600 582.322327,809.205261 
	C585.341797,806.046265 588.390808,802.856384 591.407227,799.700623 
	C578.980469,784.983948 551.520142,784.434204 537.064270,798.286987 
	C523.196350,811.576294 523.683228,835.641418 537.747314,848.856750 
	C551.725525,861.991394 581.989014,861.641296 592.685120,845.690979 
	C589.320496,842.697510 585.907288,839.660767 582.367249,836.511292 
	C575.043457,844.689514 566.439697,846.824280 555.728882,843.116638 
M960.089600,808.635498 
	C963.890015,802.557373 967.690491,796.479187 971.855164,789.818542 
	C967.974976,789.818542 965.101990,790.140381 962.328857,789.751221 
	C956.630005,788.951416 953.318604,791.056274 950.735046,796.335571 
	C946.944519,804.081421 942.169678,811.345703 937.585999,819.206482 
	C932.138367,810.079590 927.157471,801.638916 922.049438,793.275940 
	C921.249023,791.965698 919.932007,790.122070 918.749573,790.040710 
	C913.580933,789.684937 908.373718,789.887634 902.652405,789.887634 
	C911.197144,803.768982 919.271912,816.731995 927.133667,829.822937 
	C928.336792,831.826416 929.045898,834.401550 929.137634,836.745422 
	C929.401001,843.476074 929.230408,850.223755 929.230408,856.830200 
	C935.198669,856.830200 940.103943,856.830200 945.882996,856.830200 
	C941.739807,840.105591 946.984375,826.119019 957.050171,813.464905 
	C958.080139,812.169983 958.867676,810.682251 960.089600,808.635498 
M87.240738,855.218445 
	C87.240738,837.776306 87.240738,820.334229 87.240738,802.317322 
	C94.260468,802.317322 100.979790,802.317322 107.525307,802.317322 
	C107.525307,797.833435 107.525307,793.932922 107.525307,790.304443 
	C88.086960,790.304443 69.011559,790.304443 50.195129,790.304443 
	C50.195129,794.601868 50.195129,798.505859 50.195129,802.790955 
	C57.326664,802.790955 64.068375,802.790955 71.234955,802.790955 
	C71.234955,821.266602 71.234955,839.342407 71.234955,857.865051 
	C76.279663,857.865051 80.898621,857.929871 85.511055,857.786133 
	C86.113113,857.767334 86.681755,856.676331 87.240738,855.218445 
M338.262512,799.542786 
	C338.262512,818.630920 338.262512,837.719055 338.262512,856.831787 
	C344.140747,856.831787 349.349091,856.831787 354.149536,856.831787 
	C354.149536,834.303467 354.149536,812.135620 354.149536,790.220825 
	C348.475525,790.220825 343.415070,790.220825 338.233582,790.220825 
	C338.233582,793.271606 338.233582,795.914307 338.262512,799.542786 
z"/>
<path fill="#FDFDFD" opacity="1.000000" stroke="none" 
	d="
M381.840363,674.194214 
	C338.059052,595.256470 294.488434,516.623840 250.802673,438.055267 
	C212.446701,369.072235 173.960648,300.161560 135.540207,231.214355 
	C134.749908,229.796112 134.059158,228.322403 132.979233,226.201492 
	C147.629883,226.201492 161.696472,226.175323 175.762909,226.206070 
	C232.746506,226.330612 289.730042,226.503555 346.713654,226.521713 
	C349.725525,226.522675 350.987061,227.623352 352.342163,230.077484 
	C378.688110,277.790039 405.110443,325.460480 431.576630,373.106506 
	C444.971680,397.221100 458.443298,421.293579 472.006287,445.313965 
	C473.380890,447.748444 473.585693,449.518250 472.164612,452.026367 
	C458.499603,476.144836 444.971558,500.340912 431.013550,525.210999 
	C427.807373,519.467285 424.881897,514.209290 421.940735,508.960083 
	C384.337189,441.847229 346.685150,374.761444 309.221558,307.570587 
	C306.485168,302.662842 303.519592,300.580383 297.692078,300.833252 
	C285.385620,301.367310 273.039856,300.995819 259.976257,300.995819 
	C314.155243,398.586884 368.117126,495.786926 422.418884,593.599182 
	C429.160034,582.013977 435.800079,570.963623 442.097260,559.721252 
	C480.748108,490.717926 519.383728,421.705841 557.896973,352.625641 
	C580.795959,311.552246 603.509338,270.374939 626.136902,229.151459 
	C627.849609,226.031296 630.059265,226.203156 632.693359,226.211288 
	C683.178467,226.367172 733.663513,226.548233 784.148682,226.653824 
	C817.467224,226.723495 850.785950,226.681274 884.104614,226.699280 
	C884.755615,226.699631 885.406494,226.825424 886.723999,226.961594 
	C882.152954,235.204559 877.761414,243.120789 873.372803,251.038681 
	C864.916504,266.295624 856.358154,281.497620 848.094238,296.858093 
	C846.439453,299.933777 844.634460,300.959717 841.196289,300.950378 
	C786.372986,300.801636 731.549316,300.833008 676.726196,300.660950 
	C673.373779,300.650421 671.726318,301.770721 670.182434,304.555389 
	C625.234985,385.625244 580.305725,466.705505 535.173279,547.672424 
	C498.614136,613.258911 461.796844,678.701477 425.085999,744.203308 
	C424.456116,745.327271 423.724304,746.394043 422.674377,748.071777 
	C408.926208,723.212646 395.463623,698.869873 381.840363,674.194214 
z"/>
<path fill="#FDFDFD" opacity="1.000000" stroke="none" 
	d="
M536.042358,709.978882 
	C525.928101,691.611328 515.917847,673.605469 506.051117,655.521362 
	C505.414764,654.355042 505.304901,652.261719 505.926910,651.142517 
	C519.648499,626.452454 533.506042,601.837891 547.359375,577.221191 
	C547.586609,576.817383 548.082825,576.564880 548.309204,576.367554 
	C564.487610,605.575989 580.692688,634.753723 596.766235,664.003723 
	C598.035461,666.313477 599.192749,667.402283 602.000244,667.326355 
	C610.825073,667.087708 619.663208,667.334106 628.487122,667.078674 
	C630.082886,667.032410 632.371948,665.908386 633.101746,664.593933 
	C660.511414,615.223511 687.776184,565.772522 715.049377,516.326355 
	C715.193604,516.064819 715.183167,515.718018 715.391907,514.681030 
	C686.958496,514.681030 658.676514,514.681030 629.542297,514.681030 
	C637.328918,500.560913 644.591064,487.347656 651.896484,474.158386 
	C657.611084,463.841125 663.265137,453.486420 669.244019,443.323608 
	C670.165894,441.756714 672.687195,440.210052 674.472656,440.205597 
	C730.457947,440.066223 786.443665,440.118958 842.429321,440.151672 
	C842.889404,440.151947 843.349365,440.278900 844.486755,440.446564 
	C842.975220,443.273712 841.639709,445.858643 840.227295,448.400818 
	C786.422668,545.239929 732.601379,642.069763 678.853821,738.940491 
	C677.455688,741.460510 675.903320,742.359619 673.022461,742.350464 
	C634.871094,742.229309 596.719177,742.189758 558.567871,742.299500 
	C555.114319,742.309387 553.208191,741.328918 551.583313,738.240417 
	C546.635620,728.836182 541.339844,719.615051 536.042358,709.978882 
z"/>
<path fill="#F9F8F6" opacity="1.000000" stroke="none" 
	d="
M835.067139,819.888184 
	C834.822998,824.442261 834.436523,828.994202 834.366821,833.550964 
	C834.250000,841.190369 834.334900,848.832825 834.334900,856.780640 
	C829.292664,856.780640 824.571106,856.780640 819.534790,856.780640 
	C819.534790,834.621399 819.534790,812.533386 819.534790,789.726685 
	C823.540649,789.726685 827.651428,789.472961 831.695068,789.882263 
	C832.897339,790.003906 834.160583,791.833130 834.971863,793.142517 
	C841.709167,804.017334 848.343384,814.955994 855.019836,825.868530 
	C855.867859,827.254700 856.780457,828.601318 858.067261,830.591125 
	C861.531311,824.792969 864.746704,819.476379 867.896912,814.121460 
	C871.937988,807.252258 876.152222,800.470215 879.840515,793.414673 
	C881.621643,790.007385 883.617981,788.418518 887.511902,788.952576 
	C890.102356,789.307922 892.781006,789.019958 895.759399,789.019958 
	C895.759399,811.707642 895.759399,834.096558 895.759399,856.786377 
	C891.134399,856.786377 886.402893,856.786377 881.076538,856.786377 
	C881.076538,844.262817 881.076538,831.759521 881.076538,819.256226 
	C880.732178,819.170349 880.387878,819.084473 880.043518,818.998596 
	C874.563416,828.176025 869.078430,837.350586 863.604736,846.531860 
	C859.623535,853.209656 855.858887,853.229980 851.746826,846.518738 
	C846.364990,837.734802 841.037476,828.917542 835.282837,819.833923 
	C834.697266,819.667419 834.515381,819.781677 834.333496,819.895874 
	C834.578064,819.893311 834.822571,819.890747 835.067139,819.888184 
z"/>
<path fill="#F8F7F5" opacity="1.000000" stroke="none" 
	d="
M228.091858,854.047485 
	C218.191422,841.957153 208.506012,830.167175 198.110184,817.512390 
	C198.110184,831.400879 198.110184,844.252502 198.110184,857.408203 
	C192.549744,857.408203 187.477249,857.408203 182.121918,857.408203 
	C182.121918,834.891052 182.121918,812.673218 182.121918,790.000671 
	C186.140854,790.000671 189.960007,789.740356 193.712006,790.128784 
	C195.212967,790.284180 196.882401,791.600952 197.936844,792.845276 
	C207.514282,804.147034 216.971054,815.551147 226.470505,826.919128 
	C226.955795,827.499817 227.509094,828.023804 228.559860,829.132446 
	C228.559860,815.801392 228.559860,803.240662 228.559860,790.286926 
	C233.894669,790.286926 238.953217,790.286926 244.431412,790.286926 
	C244.431412,812.435303 244.431412,834.686096 244.431412,857.672058 
	C239.218475,855.865234 232.834335,860.952820 228.091858,854.047485 
z"/>
<path fill="#FAF9F8" opacity="1.000000" stroke="none" 
	d="
M259.959198,826.000000 
	C259.961792,813.858704 259.961792,802.217346 259.961792,789.915955 
	C264.247498,789.915955 268.367493,789.625854 272.406464,790.070984 
	C273.849457,790.229980 275.292114,792.003052 276.402008,793.320007 
	C285.624878,804.263367 294.779053,815.264648 303.917542,826.278687 
	C304.528534,827.015137 304.841431,827.998962 305.292999,828.867676 
	C305.742859,828.590027 306.192719,828.312439 306.642578,828.034851 
	C306.642578,815.504883 306.642578,802.974976 306.642578,790.181763 
	C312.056793,790.181763 316.972839,790.181763 322.248535,790.181763 
	C322.248535,812.260132 322.248535,834.340210 322.248535,857.243896 
	C318.312653,857.243896 314.209534,857.437012 310.145508,857.123718 
	C308.959320,857.032288 307.675262,855.670166 306.790802,854.597961 
	C298.213379,844.199402 289.718689,833.732666 281.181061,823.301208 
	C279.751129,821.554077 278.228546,819.882751 276.070007,817.393677 
	C276.070007,831.238098 276.070007,844.090515 276.070007,857.137329 
	C270.566193,857.137329 265.499115,857.137329 259.956604,857.137329 
	C259.956604,846.739990 259.956604,836.620056 259.959198,826.000000 
z"/>
<path fill="#F7F7F5" opacity="1.000000" stroke="none" 
	d="
M676.499146,835.997498 
	C676.495911,820.388611 676.495911,805.279785 676.495911,789.438049 
	C691.757324,790.379578 707.066040,787.041199 721.987976,791.966492 
	C737.518555,797.092590 746.350220,812.128662 743.946350,828.945496 
	C741.661011,844.933167 728.839661,856.552063 712.553833,856.934814 
	C700.761475,857.211975 688.957336,856.988892 676.502380,856.988892 
	C676.502380,850.041687 676.502380,843.269653 676.499146,835.997498 
M708.132019,844.003418 
	C720.692749,842.601501 727.728638,835.417358 727.928040,823.789917 
	C728.125183,812.301208 721.193420,804.328735 708.917908,802.776245 
	C703.720215,802.118835 698.370117,802.666626 692.895691,802.666626 
	C692.895691,816.394226 692.895691,830.101013 692.895691,844.032654 
	C697.930908,844.032654 702.569153,844.032654 708.132019,844.003418 
z"/>
<path fill="#F6F5F3" opacity="1.000000" stroke="none" 
	d="
M139.000092,789.964966 
	C149.127823,789.965210 158.755539,789.965210 168.655334,789.965210 
	C168.655334,794.122314 168.655334,798.036621 168.655334,802.554688 
	C157.067261,802.554688 145.483047,802.554688 133.854218,802.554688 
	C133.854218,807.715942 133.854218,812.267700 133.854218,817.043579 
	C144.145844,817.043579 154.081390,817.043579 164.440247,817.043579 
	C164.440247,821.147217 164.440247,825.044250 164.440247,829.483032 
	C154.572464,829.483032 144.512848,829.483032 134.026672,829.483032 
	C134.026672,834.864746 134.026672,839.721924 134.026672,844.906494 
	C145.741211,844.906494 157.499176,844.906494 169.563126,844.906494 
	C169.563126,849.132507 169.563126,853.043030 169.563126,857.415405 
	C152.351257,857.415405 135.298523,857.415405 117.896782,857.415405 
	C117.896782,835.176147 117.896782,812.782593 117.896782,789.964783 
	C124.916573,789.964783 131.708344,789.964783 139.000092,789.964966 
z"/>
<path fill="#F9F8F7" opacity="1.000000" stroke="none" 
	d="
M513.309570,857.028198 
	C509.861145,857.618774 508.149780,856.345764 507.484283,853.424011 
	C505.545502,844.911499 500.701172,841.246582 491.636719,842.805847 
	C486.618774,843.669128 481.326202,843.126709 476.169769,842.916138 
	C473.471283,842.805969 471.587311,843.379517 471.062531,846.218140 
	C469.324371,855.619873 463.690277,858.979858 454.516632,857.104370 
	C453.242493,856.843872 451.869232,857.068298 450.011169,857.068298 
	C454.863708,845.807556 459.511932,834.843872 464.306732,823.944519 
	C468.986053,813.307678 473.925293,802.783813 478.499390,792.102844 
	C479.612061,789.504639 481.078339,789.163757 483.643066,788.707397 
	C492.908051,787.058960 497.198639,790.962097 500.626526,799.540649 
	C508.307617,818.763184 517.304871,837.459717 526.060364,857.027893 
	C521.606995,857.027893 517.686096,857.027893 513.309570,857.028198 
M479.276794,826.024231 
	C478.744537,827.551514 478.212311,829.078857 477.562653,830.943115 
	C484.489716,830.943115 491.041504,830.943115 497.995728,830.943115 
	C494.584290,822.828857 491.236359,814.865662 487.619873,806.263672 
	C484.751312,813.128418 482.207001,819.217163 479.276794,826.024231 
z"/>
<path fill="#F9F9F6" opacity="1.000000" stroke="none" 
	d="
M621.085205,793.975586 
	C622.338379,789.636414 625.095642,789.104492 628.954529,788.598999 
	C636.756287,787.577087 640.221130,790.769409 643.123108,797.743469 
	C651.324097,817.452698 660.359314,836.814758 669.381165,857.019592 
	C664.058411,857.019592 659.313232,857.208374 654.602844,856.886353 
	C653.430420,856.806213 651.603699,855.225891 651.379517,854.080322 
	C649.384338,843.884888 642.969788,841.375854 633.530762,842.771179 
	C629.132080,843.421387 624.533447,843.191589 620.073242,842.806763 
	C616.347229,842.485168 614.806274,843.996460 613.784546,847.328308 
	C612.773254,850.626160 611.113892,853.725281 609.672852,857.064453 
	C608.207642,857.064453 606.885620,857.064392 605.563538,857.064392 
	C601.747314,857.064392 597.931030,857.064453 593.210266,857.064453 
	C602.621887,835.788940 611.789062,815.065979 621.085205,793.975586 
M623.182922,824.746033 
	C622.432983,826.711548 621.682983,828.677002 620.871460,830.803955 
	C627.835815,830.803955 634.357666,830.803955 641.415894,830.803955 
	C637.861145,822.501221 634.494446,814.637756 630.857239,806.142395 
	C628.156677,812.744019 625.844727,818.395752 623.182922,824.746033 
z"/>
<path fill="#FBFAF9" opacity="1.000000" stroke="none" 
	d="
M762.225586,789.550903 
	C776.981750,789.537598 791.273193,789.537598 805.819702,789.537598 
	C805.819702,793.711487 805.819702,797.494080 805.819702,801.755066 
	C794.538269,801.755066 783.143188,801.755066 771.424561,801.755066 
	C771.424561,806.798279 771.424561,811.375732 771.424561,816.428345 
	C781.317139,816.428345 791.378723,816.428345 801.753479,816.428345 
	C801.753479,820.782043 801.753479,824.674866 801.753479,829.042847 
	C791.672302,829.042847 781.609802,829.042847 771.303955,829.042847 
	C771.303955,834.237610 771.303955,838.967712 771.303955,844.138428 
	C783.203979,844.138428 794.933655,844.138428 806.887939,844.138428 
	C806.887939,848.510254 806.887939,852.453308 806.887939,856.735718 
	C789.811951,856.735718 772.615784,856.735718 755.179688,856.735718 
	C755.179688,834.441406 755.179688,812.213318 755.179688,789.564148 
	C757.468201,789.564148 759.614563,789.564148 762.225586,789.550903 
z"/>
<path fill="#F8F8F7" opacity="1.000000" stroke="none" 
	d="
M412.710693,792.161743 
	C414.652344,793.177979 416.235016,794.059509 418.299011,795.209167 
	C416.502502,799.046936 414.798004,802.688110 413.023926,806.477905 
	C405.116913,802.920349 397.632904,799.788025 389.149109,801.871033 
	C385.522308,802.761475 382.301727,804.089111 382.039703,808.334351 
	C381.782379,812.503845 385.017273,814.027405 388.265289,815.041565 
	C393.492401,816.673462 398.866669,817.843201 404.068390,819.545410 
	C416.233032,823.526184 421.401428,829.378235 420.936279,838.231934 
	C420.424164,847.979736 413.518005,855.578369 401.866791,857.539734 
	C388.577301,859.776855 375.643219,858.501709 363.865906,849.857971 
	C365.650513,846.222656 367.444519,842.568176 368.966766,839.467285 
	C375.595428,841.584839 381.746674,844.117249 388.148346,845.376953 
	C391.845917,846.104614 396.110321,845.301270 399.797394,844.152588 
	C401.589447,843.594238 403.577667,840.737305 403.736298,838.779846 
	C403.865936,837.179932 401.755157,834.452515 400.044983,833.815125 
	C393.068542,831.214905 385.813354,829.376038 378.754974,826.979492 
	C364.613312,822.178040 360.151764,807.167908 370.214996,797.116455 
	C373.460724,793.874634 378.139984,791.581604 382.580078,790.120667 
	C392.608093,786.821045 402.613800,788.407104 412.710693,792.161743 
z"/>
<path fill="#F8F8F6" opacity="1.000000" stroke="none" 
	d="
M556.085632,843.285217 
	C566.439697,846.824280 575.043457,844.689514 582.367249,836.511292 
	C585.907288,839.660767 589.320496,842.697510 592.685120,845.690979 
	C581.989014,861.641296 551.725525,861.991394 537.747314,848.856750 
	C523.683228,835.641418 523.196350,811.576294 537.064270,798.286987 
	C551.520142,784.434204 578.980469,784.983948 591.407227,799.700623 
	C588.390808,802.856384 585.341797,806.046265 582.322327,809.205261 
	C568.521179,798.839600 554.080994,799.355591 547.122864,810.229004 
	C539.803406,821.667053 543.823059,837.028015 556.085632,843.285217 
z"/>
<path fill="#F8F8F5" opacity="1.000000" stroke="none" 
	d="
M959.928711,808.959717 
	C958.867676,810.682251 958.080139,812.169983 957.050171,813.464905 
	C946.984375,826.119019 941.739807,840.105591 945.882996,856.830200 
	C940.103943,856.830200 935.198669,856.830200 929.230408,856.830200 
	C929.230408,850.223755 929.401001,843.476074 929.137634,836.745422 
	C929.045898,834.401550 928.336792,831.826416 927.133667,829.822937 
	C919.271912,816.731995 911.197144,803.768982 902.652405,789.887634 
	C908.373718,789.887634 913.580933,789.684937 918.749573,790.040710 
	C919.932007,790.122070 921.249023,791.965698 922.049438,793.275940 
	C927.157471,801.638916 932.138367,810.079590 937.585999,819.206482 
	C942.169678,811.345703 946.944519,804.081421 950.735046,796.335571 
	C953.318604,791.056274 956.630005,788.951416 962.328857,789.751221 
	C965.101990,790.140381 967.974976,789.818542 971.855164,789.818542 
	C967.690491,796.479187 963.890015,802.557373 959.928711,808.959717 
z"/>
<path fill="#F7F6F5" opacity="1.000000" stroke="none" 
	d="
M87.253311,855.650269 
	C86.681755,856.676331 86.113113,857.767334 85.511055,857.786133 
	C80.898621,857.929871 76.279663,857.865051 71.234955,857.865051 
	C71.234955,839.342407 71.234955,821.266602 71.234955,802.790955 
	C64.068375,802.790955 57.326664,802.790955 50.195129,802.790955 
	C50.195129,798.505859 50.195129,794.601868 50.195129,790.304443 
	C69.011559,790.304443 88.086960,790.304443 107.525307,790.304443 
	C107.525307,793.932922 107.525307,797.833435 107.525307,802.317322 
	C100.979790,802.317322 94.260468,802.317322 87.240738,802.317322 
	C87.240738,820.334229 87.240738,837.776306 87.253311,855.650269 
z"/>
<path fill="#F6F5F3" opacity="1.000000" stroke="none" 
	d="
M338.248047,799.049927 
	C338.233582,795.914307 338.233582,793.271606 338.233582,790.220825 
	C343.415070,790.220825 348.475525,790.220825 354.149536,790.220825 
	C354.149536,812.135620 354.149536,834.303467 354.149536,856.831787 
	C349.349091,856.831787 344.140747,856.831787 338.262512,856.831787 
	C338.262512,837.719055 338.262512,818.630920 338.248047,799.049927 
z"/>
<path fill="#010101" opacity="1.000000" stroke="none" 
	d="
M835.048950,819.921326 
	C834.822571,819.890747 834.578064,819.893311 834.333496,819.895874 
	C834.515381,819.781677 834.697266,819.667419 834.932617,819.784302 
	C834.986023,820.015320 835.030823,819.954468 835.048950,819.921326 
z"/>
<path fill="#050504" opacity="1.000000" stroke="none" 
	d="
M707.669678,844.018066 
	C702.569153,844.032654 697.930908,844.032654 692.895691,844.032654 
	C692.895691,830.101013 692.895691,816.394226 692.895691,802.666626 
	C698.370117,802.666626 703.720215,802.118835 708.917908,802.776245 
	C721.193420,804.328735 728.125183,812.301208 727.928040,823.789917 
	C727.728638,835.417358 720.692749,842.601501 707.669678,844.018066 
z"/>
<path fill="#090A08" opacity="1.000000" stroke="none" 
	d="
M479.469757,825.665039 
	C482.207001,819.217163 484.751312,813.128418 487.619873,806.263672 
	C491.236359,814.865662 494.584290,822.828857 497.995728,830.943115 
	C491.041504,830.943115 484.489716,830.943115 477.562653,830.943115 
	C478.212311,829.078857 478.744537,827.551514 479.469757,825.665039 
z"/>
<path fill="#080907" opacity="1.000000" stroke="none" 
	d="
M623.357849,824.396729 
	C625.844727,818.395752 628.156677,812.744019 630.857239,806.142395 
	C634.494446,814.637756 637.861145,822.501221 641.415894,830.803955 
	C634.357666,830.803955 627.835815,830.803955 620.871460,830.803955 
	C621.682983,828.677002 622.432983,826.711548 623.357849,824.396729 
z"/>
</svg>